<?xml version="1.0" encoding="utf-8"?>
<!-- Generator: Adobe Illustrator 16.0.0, SVG Export Plug-In . SVG Version: 6.00 Build 0)  -->
<!DOCTYPE svg PUBLIC "-//W3C//DTD SVG 1.1//EN" "http://www.w3.org/Graphics/SVG/1.1/DTD/svg11.dtd">
<svg version="1.1" id="Layer_1" xmlns="http://www.w3.org/2000/svg" xmlns:xlink="http://www.w3.org/1999/xlink" x="0px" y="0px"
	 width="32px" height="32px" viewBox="0 0 32 32" enable-background="new 0 0 32 32" xml:space="preserve">
<g>
	<defs>
		<rect id="SVGID_1_" x="-1.053" y="-1.568" width="34.107" height="34.107"/>
	</defs>
	<clipPath id="SVGID_2_">
		<use xlink:href="#SVGID_1_"  overflow="visible"/>
	</clipPath>
	<path clip-path="url(#SVGID_2_)" fill="#1D1D1B" d="M0.763,15.963c0-8.428,6.83-15.265,15.258-15.265
		c8.43,0,15.267,6.837,15.267,15.265s-6.837,15.265-15.267,15.265C7.593,31.228,0.763,24.391,0.763,15.963"/>
	<path clip-path="url(#SVGID_2_)" fill="none" stroke="#FFFFFF" stroke-width="1.6" d="M16.028,9.9c0,0-0.985-1.185-2.288-1.341
		c-1.303-0.158-2.367,0.433-3.195,0.473c-0.828,0.04-4.616,0.08-4.616,0.08v14.281c0,0,5.208,0.236,6.945-0.196
		c1.735-0.435,2.01,0.433,2.563,0.473c0.554,0.038,1.145,0,1.5,0c0.354,0,0.788-0.514,1.776-0.514c0.984,0,1.143,0.433,2.562,0.433
		h5.207V9.032c0,0-3.826,0.316-6.037-0.394C18.239,7.928,16.028,9.9,16.028,9.9z"/>
	
		<line clip-path="url(#SVGID_2_)" fill="none" stroke="#FFFFFF" stroke-width="1.6" x1="16.028" y1="9.938" x2="16.147" y2="23.708"/>
	<path clip-path="url(#SVGID_2_)" fill="#FFFFFF" d="M6.03,21.75c0,0,4.181,0.04,5.325-0.159c1.144-0.196,2.092-1.025,4.774,0.711
		c0,0,2.13-1.024,2.999-1.024c0.866,0,2.091,0.513,2.918,0.513h4.499v1.577h-5.839l-1.776-0.394l-0.984,0.157l-1.025,0.315
		l-1.383,0.079l-0.987-0.475l-0.669-0.158l-0.671,0.04l-0.868,0.198H5.989L6.03,21.75z"/>
</g>
</svg>
