<?xml version="1.0" encoding="utf-8"?>
<!-- Generator: Adobe Illustrator 26.2.1, SVG Export Plug-In . SVG Version: 6.00 Build 0)  -->
<svg version="1.1" id="Capa_1" xmlns="http://www.w3.org/2000/svg" xmlns:xlink="http://www.w3.org/1999/xlink" x="0px" y="0px"
	 viewBox="0 0 16 16" style="enable-background:new 0 0 16 16;" xml:space="preserve">
<style type="text/css">
	.st0{fill:#1D1D1B;}
	.st1{fill:none;stroke:#FFFFFF;stroke-width:0.4;}
	.st2{fill:#FFFFFF;}
</style>
<path class="st0" d="M0.53,7.99c0-4.17,3.38-7.55,7.55-7.55s7.55,3.38,7.55,7.55s-3.38,7.55-7.55,7.55S0.53,12.16,0.53,7.99"/>
<g>
	<path class="st1" d="M8.1,5.62c0,0-0.39-0.47-0.9-0.53C6.69,5.03,6.27,5.26,5.94,5.27C5.61,5.29,4.12,5.31,4.12,5.31v5.63
		c0,0,2.05,0.09,2.74-0.08c0.68-0.17,0.79,0.17,1.01,0.19c0.22,0.02,0.45,0,0.59,0s0.31-0.2,0.7-0.2c0.39,0,0.45,0.17,1.01,0.17
		c0.56,0,2.05,0,2.05,0V5.27c0,0-1.51,0.12-2.38-0.16C8.98,4.84,8.1,5.62,8.1,5.62z"/>
	<line class="st1" x1="8.1" y1="5.63" x2="8.15" y2="11.06"/>
	<path class="st2" d="M4.14,10.36c0,0,1.65,0.02,2.1-0.06c0.45-0.08,0.82-0.4,1.88,0.28c0,0,0.84-0.4,1.18-0.4
		c0.34,0,0.83,0.2,1.15,0.2c0.33,0,1.77,0,1.77,0V11h-2.3l-0.7-0.16l-0.39,0.06l-0.4,0.12l-0.54,0.03L7.5,10.88l-0.26-0.06
		l-0.26,0.02l-0.34,0.08H4.12L4.14,10.36z"/>
</g>
</svg>
